<svg width="175" height="135" viewBox="0 0 175 135" fill="none" xmlns="http://www.w3.org/2000/svg">
<path d="M172.917 75.3142C171.781 72.5741 170.083 70.1032 167.931 68.0618C166.333 70.4442 164.428 72.6051 162.264 74.4883C146.37 88.4675 129.471 101.261 111.703 112.764C129.69 110.533 147.272 105.775 163.929 98.63C168.434 96.9222 172.087 93.5128 174.102 89.1367C174.839 86.8707 175.115 84.4797 174.911 82.1053C174.708 79.731 174.03 77.4217 172.917 75.3142Z" fill="#F2E3D5"/>
<path d="M87.745 0C68.7614 0 65.9283 13.6697 65.9283 21.8167C65.9283 75.4233 79.7321 127.783 87.745 127.783C95.7579 127.783 109.562 75.4233 109.562 21.8167C109.562 13.6697 106.729 0 87.745 0Z" fill="#F2E3D5"/>
<path d="M2.57585 75.308C1.46233 77.4162 0.783453 79.7265 0.579477 82.1019C0.375502 84.4773 0.65058 86.8695 1.3884 89.1367C3.39939 93.5073 7.04554 96.9139 11.5425 98.6238C28.2054 105.772 45.7937 110.532 63.7872 112.764C46.0158 101.261 29.1133 88.4679 13.2162 74.4883C11.0529 72.6057 9.14869 70.4447 7.55317 68.0618C5.40583 70.1027 3.71026 72.5713 2.57585 75.308Z" fill="#F2E3D5"/>
<path d="M25.6704 35.6827C21.6954 36.9379 18.178 39.3356 15.5568 42.5768C13.7214 44.4055 12.2713 46.5836 11.2922 48.9824C10.3131 51.3812 9.8249 53.9519 9.85638 56.5426C10.5177 61.7717 13.2033 66.533 17.3364 69.804C31.3462 82.1537 46.1668 93.5519 61.699 103.922C48.7064 85.4198 37.5844 65.6722 28.4972 44.9704C27.1126 42.0267 26.1605 38.8986 25.6704 35.6827Z" fill="#F2E3D5"/>
<path d="M109.562 134.017C113.693 134.012 117.654 132.368 120.575 129.447C123.497 126.526 125.14 122.565 125.145 118.433V116.81C117.512 118.265 109.272 119.496 100.262 120.55C98.7095 124.495 96.4408 128.12 93.5701 131.24C94.4393 132.118 95.4736 132.815 96.6135 133.292C97.7533 133.768 98.9762 134.015 100.212 134.017H109.562Z" fill="#F2E3D5"/>
<path d="M75.2783 134.017C77.7656 134.013 80.1502 133.025 81.9106 131.268L81.9355 131.237C79.0556 128.116 76.7812 124.487 75.2285 120.534C66.2182 119.496 57.9777 118.265 50.345 116.794V118.433C50.3499 122.565 51.9933 126.526 54.9147 129.447C57.8361 132.368 61.7969 134.012 65.9283 134.017H75.2783Z" fill="#F2E3D5"/>
<path d="M141.33 42.3586C143.941 37.373 144.494 31.5623 142.869 26.1738C141.777 23.6321 140.187 21.3349 138.193 19.418C136.198 17.5011 133.84 16.0033 131.257 15.013C128.781 13.6481 126.045 12.819 123.228 12.5796C120.411 12.3401 117.575 12.6956 114.904 13.623C115.506 16.3123 115.805 19.0607 115.795 21.8167C115.707 49.5684 112.347 77.2129 105.784 104.178C117.462 89.2052 128.972 69.1619 141.33 42.3586Z" fill="#F2E3D5"/>
<path d="M149.82 35.6827C149.328 38.9007 148.375 42.0309 146.99 44.9766C137.903 65.676 126.782 85.4215 113.791 103.922C129.322 93.5539 144.143 82.1589 158.154 69.8133C162.288 66.539 164.973 61.7746 165.634 56.5426C165.665 53.9504 165.176 51.3783 164.196 48.9784C163.216 46.5785 161.764 44.3996 159.927 42.5706C157.308 39.3312 153.792 36.9354 149.82 35.6827Z" fill="#F2E3D5"/>
<path d="M44.2301 15.0161C41.6476 16.0058 39.2897 17.5031 37.2956 19.4195C35.3016 21.3359 33.7119 23.6326 32.6205 26.1738C30.9945 31.5598 31.5462 37.3688 34.157 42.3524C46.5177 69.1557 58.0276 89.2052 69.7057 104.178C63.1434 77.2129 59.7833 49.5684 59.695 21.8167C59.6852 19.0607 59.9842 16.3123 60.5864 13.623C57.9153 12.6923 55.078 12.3353 52.2597 12.5754C49.4413 12.8155 46.7053 13.6471 44.2301 15.0161Z" fill="#F2E3D5"/>
<path d="M18.9 103.067V102.167C19.92 102.107 20.685 101.987 21.195 101.807C21.705 101.627 22.035 101.267 22.185 100.727C22.365 100.187 22.455 99.3767 22.455 98.2967V75.9767C22.455 74.8667 22.365 74.0567 22.185 73.5467C22.035 73.0067 21.69 72.6467 21.15 72.4667C20.64 72.2567 19.89 72.1367 18.9 72.1067V71.2067C19.65 71.2367 20.58 71.2667 21.69 71.2967C22.83 71.3267 23.955 71.3417 25.065 71.3417C26.325 71.3417 27.495 71.3267 28.575 71.2967C29.655 71.2667 30.525 71.2367 31.185 71.2067V72.1067C30.195 72.1367 29.445 72.2567 28.935 72.4667C28.425 72.6467 28.08 73.0067 27.9 73.5467C27.72 74.0567 27.63 74.8667 27.63 75.9767V98.2967C27.63 99.3767 27.72 100.187 27.9 100.727C28.08 101.267 28.425 101.627 28.935 101.807C29.445 101.987 30.195 102.107 31.185 102.167V103.067C30.525 103.007 29.655 102.977 28.575 102.977C27.495 102.947 26.325 102.932 25.065 102.932C23.955 102.932 22.83 102.947 21.69 102.977C20.58 102.977 19.65 103.007 18.9 103.067ZM0 103.067V102.167C1.02 102.107 1.785 101.987 2.295 101.807C2.805 101.627 3.135 101.267 3.285 100.727C3.465 100.187 3.555 99.3767 3.555 98.2967V75.9767C3.555 74.8667 3.465 74.0567 3.285 73.5467C3.135 73.0067 2.79 72.6467 2.25 72.4667C1.74 72.2567 0.99 72.1367 0 72.1067V71.2067C0.69 71.2367 1.575 71.2667 2.655 71.2967C3.765 71.3267 4.95 71.3417 6.21 71.3417C7.35 71.3417 8.46 71.3267 9.54 71.2967C10.65 71.2667 11.565 71.2367 12.285 71.2067V72.1067C11.295 72.1367 10.545 72.2567 10.035 72.4667C9.525 72.6467 9.18 73.0067 9 73.5467C8.82 74.0567 8.73 74.8667 8.73 75.9767V98.2967C8.73 99.3767 8.82 100.187 9 100.727C9.18 101.267 9.525 101.627 10.035 101.807C10.545 101.987 11.295 102.107 12.285 102.167V103.067C11.565 103.007 10.65 102.977 9.54 102.977C8.46 102.947 7.35 102.932 6.21 102.932C4.95 102.932 3.765 102.947 2.655 102.977C1.575 102.977 0.69 103.007 0 103.067ZM6.705 87.4967V86.5967H24.48V87.4967H6.705Z" fill="#59220E"/>
<path d="M44.6358 79.2167C46.6458 79.2167 48.4308 79.6367 49.9908 80.4767C51.5508 81.3167 52.7958 82.6367 53.7258 84.4367C54.6558 86.2367 55.1208 88.5917 55.1208 91.5017C55.1208 94.4117 54.6558 96.7667 53.7258 98.5667C52.7958 100.337 51.5508 101.642 49.9908 102.482C48.4308 103.292 46.6458 103.697 44.6358 103.697C42.6558 103.697 40.8708 103.292 39.2808 102.482C37.6908 101.642 36.4308 100.337 35.5008 98.5667C34.6008 96.7667 34.1508 94.4117 34.1508 91.5017C34.1508 88.5917 34.6008 86.2367 35.5008 84.4367C36.4308 82.6367 37.6908 81.3167 39.2808 80.4767C40.8708 79.6367 42.6558 79.2167 44.6358 79.2167ZM44.6358 80.1167C43.0758 80.1167 41.8008 81.0167 40.8108 82.8167C39.8208 84.5867 39.3258 87.4817 39.3258 91.5017C39.3258 95.5217 39.8208 98.4167 40.8108 100.187C41.8008 101.927 43.0758 102.797 44.6358 102.797C46.1658 102.797 47.4258 101.927 48.4158 100.187C49.4358 98.4167 49.9458 95.5217 49.9458 91.5017C49.9458 87.4817 49.4358 84.5867 48.4158 82.8167C47.4258 81.0167 46.1658 80.1167 44.6358 80.1167Z" fill="#59220E"/>
<path d="M65.6933 67.7867V98.8817C65.6933 100.142 65.9333 100.997 66.4133 101.447C66.9233 101.897 67.7633 102.122 68.9333 102.122V103.067C68.4233 103.037 67.6283 103.007 66.5483 102.977C65.4683 102.917 64.3883 102.887 63.3083 102.887C62.2283 102.887 61.1333 102.917 60.0233 102.977C58.9433 103.007 58.1333 103.037 57.5933 103.067V102.122C58.7633 102.122 59.5883 101.897 60.0683 101.447C60.5783 100.997 60.8333 100.142 60.8333 98.8817V73.1867C60.8333 71.8367 60.6083 70.8467 60.1583 70.2167C59.7083 69.5567 58.8533 69.2267 57.5933 69.2267V68.2817C58.5533 68.3717 59.4833 68.4167 60.3833 68.4167C61.3733 68.4167 62.3183 68.3717 63.2183 68.2817C64.1183 68.1617 64.9433 67.9967 65.6933 67.7867Z" fill="#59220E"/>
<path d="M76.4909 68.5067C77.4209 68.5067 78.2009 68.8067 78.8309 69.4067C79.4609 69.9767 79.7759 70.6967 79.7759 71.5667C79.7759 72.4367 79.4609 73.1717 78.8309 73.7717C78.2009 74.3417 77.4209 74.6267 76.4909 74.6267C75.5609 74.6267 74.7809 74.3417 74.1509 73.7717C73.5209 73.1717 73.2059 72.4367 73.2059 71.5667C73.2059 70.6967 73.5209 69.9767 74.1509 69.4067C74.7809 68.8067 75.5609 68.5067 76.4909 68.5067ZM79.1909 79.3517V98.8817C79.1909 100.142 79.4309 100.997 79.9109 101.447C80.4209 101.897 81.2609 102.122 82.4309 102.122V103.067C81.9209 103.037 81.1259 103.007 80.0459 102.977C78.9959 102.917 77.9159 102.887 76.8059 102.887C75.7559 102.887 74.6759 102.917 73.5659 102.977C72.4559 103.007 71.6309 103.037 71.0909 103.067V102.122C72.2609 102.122 73.0859 101.897 73.5659 101.447C74.0759 100.997 74.3309 100.142 74.3309 98.8817V84.7517C74.3309 83.4017 74.1059 82.4117 73.6559 81.7817C73.2059 81.1217 72.3509 80.7917 71.0909 80.7917V79.8467C72.0509 79.9367 72.9809 79.9817 73.8809 79.9817C74.9009 79.9817 75.8459 79.9367 76.7159 79.8467C77.6159 79.7267 78.4409 79.5617 79.1909 79.3517Z" fill="#59220E"/>
<path d="M105.642 67.7867V98.1617C105.642 99.5117 105.867 100.517 106.317 101.177C106.797 101.807 107.652 102.122 108.882 102.122V103.067C107.952 102.977 107.022 102.932 106.092 102.932C105.072 102.932 104.112 102.977 103.212 103.067C102.342 103.157 101.532 103.322 100.782 103.562V73.1867C100.782 71.8367 100.542 70.8467 100.062 70.2167C99.6121 69.5567 98.7721 69.2267 97.5421 69.2267V68.2817C98.5021 68.3717 99.4321 68.4167 100.332 68.4167C101.322 68.4167 102.267 68.3717 103.167 68.2817C104.067 68.1617 104.892 67.9967 105.642 67.7867ZM95.5171 79.2167C96.8371 79.2167 98.0371 79.5017 99.1171 80.0717C100.227 80.6417 101.007 81.6017 101.457 82.9517L100.917 83.4467C100.497 82.3667 99.8821 81.5867 99.0721 81.1067C98.2621 80.5967 97.3471 80.3417 96.3271 80.3417C94.6171 80.3417 93.2221 81.2567 92.1421 83.0867C91.0621 84.8867 90.5371 87.6767 90.5671 91.4567C90.5671 93.9467 90.7771 95.9867 91.1971 97.5767C91.6171 99.1367 92.2321 100.292 93.0421 101.042C93.8821 101.792 94.8871 102.167 96.0571 102.167C97.2271 102.167 98.2771 101.672 99.2071 100.682C100.167 99.6917 100.737 98.2667 100.917 96.4067L101.322 97.3517C101.022 99.3917 100.302 100.967 99.1621 102.077C98.0221 103.157 96.4921 103.697 94.5721 103.697C92.7421 103.697 91.1221 103.262 89.7121 102.392C88.3321 101.492 87.2671 100.142 86.5171 98.3417C85.7671 96.5117 85.3921 94.2167 85.3921 91.4567C85.3921 88.7267 85.8421 86.4617 86.7421 84.6617C87.6721 82.8317 88.9021 81.4667 90.4321 80.5667C91.9621 79.6667 93.6571 79.2167 95.5171 79.2167Z" fill="#59220E"/>
<path d="M117.338 103.382C116.078 103.382 114.998 103.142 114.098 102.662C113.198 102.182 112.523 101.522 112.073 100.682C111.623 99.8417 111.398 98.8817 111.398 97.8017C111.398 96.4817 111.698 95.4167 112.298 94.6067C112.898 93.7667 113.663 93.0917 114.593 92.5817C115.553 92.0717 116.558 91.6517 117.608 91.3217C118.688 90.9617 119.693 90.6317 120.623 90.3317C121.583 90.0017 122.363 89.6267 122.963 89.2067C123.593 88.7867 123.908 88.2317 123.908 87.5417V84.4817C123.908 83.4017 123.728 82.5467 123.368 81.9167C123.038 81.2567 122.573 80.7917 121.973 80.5217C121.403 80.2517 120.713 80.1167 119.903 80.1167C119.213 80.1167 118.478 80.2217 117.698 80.4317C116.918 80.6117 116.303 80.9867 115.853 81.5567C116.513 81.7367 117.053 82.0967 117.473 82.6367C117.923 83.1467 118.148 83.7917 118.148 84.5717C118.148 85.4117 117.863 86.0717 117.293 86.5517C116.753 87.0317 116.063 87.2717 115.223 87.2717C114.293 87.2717 113.603 86.9867 113.153 86.4167C112.703 85.8167 112.478 85.1267 112.478 84.3467C112.478 83.5367 112.673 82.8767 113.063 82.3667C113.483 81.8567 114.023 81.3767 114.683 80.9267C115.403 80.4467 116.318 80.0417 117.428 79.7117C118.568 79.3817 119.828 79.2167 121.208 79.2167C122.498 79.2167 123.608 79.3667 124.538 79.6667C125.498 79.9367 126.293 80.3867 126.923 81.0167C127.673 81.7067 128.168 82.5767 128.408 83.6267C128.648 84.6467 128.768 85.8917 128.768 87.3617V99.7817C128.768 100.532 128.858 101.072 129.038 101.402C129.248 101.702 129.578 101.852 130.028 101.852C130.328 101.852 130.613 101.777 130.883 101.627C131.183 101.477 131.528 101.252 131.918 100.952L132.368 101.717C131.738 102.227 131.093 102.632 130.433 102.932C129.803 103.232 128.993 103.382 128.003 103.382C127.043 103.382 126.263 103.232 125.663 102.932C125.063 102.632 124.613 102.197 124.313 101.627C124.043 101.057 123.908 100.352 123.908 99.5117C123.128 100.772 122.198 101.732 121.118 102.392C120.038 103.052 118.778 103.382 117.338 103.382ZM119.498 101.222C120.338 101.222 121.118 100.982 121.838 100.502C122.588 100.022 123.278 99.3017 123.908 98.3417V89.3867C123.578 89.8667 123.098 90.2867 122.468 90.6467C121.838 90.9767 121.163 91.3217 120.443 91.6817C119.723 92.0417 119.033 92.4617 118.373 92.9417C117.743 93.3917 117.218 93.9767 116.798 94.6967C116.378 95.4167 116.168 96.3317 116.168 97.4417C116.168 98.6117 116.468 99.5417 117.068 100.232C117.668 100.892 118.478 101.222 119.498 101.222Z" fill="#59220E"/>
<path d="M152.343 79.6217L139.923 102.392H143.973C145.173 102.392 146.238 102.152 147.168 101.672C148.098 101.192 148.863 100.397 149.463 99.2867C150.063 98.1767 150.423 96.7067 150.543 94.8767H151.578C151.578 96.8867 151.593 98.5667 151.623 99.9167C151.653 101.267 151.698 102.377 151.758 103.247C150.408 103.187 149.013 103.142 147.573 103.112C146.133 103.082 144.708 103.067 143.298 103.067C141.768 103.067 140.208 103.082 138.618 103.112C137.058 103.172 135.558 103.232 134.118 103.292L146.538 80.5217H142.398C141.108 80.5217 139.998 80.7767 139.068 81.2867C138.138 81.7667 137.403 82.5617 136.863 83.6717C136.353 84.7517 136.023 86.2067 135.873 88.0367H134.883C134.883 85.9967 134.868 84.3167 134.838 82.9967C134.808 81.6767 134.763 80.5667 134.703 79.6667C136.023 79.7267 137.403 79.7717 138.843 79.8017C140.283 79.8317 141.723 79.8467 143.163 79.8467C144.663 79.8467 146.193 79.8317 147.753 79.8017C149.343 79.7417 150.873 79.6817 152.343 79.6217Z" fill="#59220E"/>
<path d="M166.23 79.2167C168.87 79.2167 170.94 80.0117 172.44 81.6017C173.94 83.1917 174.69 85.7117 174.69 89.1617H159.165L159.075 88.3067H169.92C169.95 86.8367 169.83 85.4867 169.56 84.2567C169.29 82.9967 168.87 81.9917 168.3 81.2417C167.73 80.4917 166.98 80.1167 166.05 80.1167C164.76 80.1167 163.635 80.8067 162.675 82.1867C161.745 83.5367 161.175 85.7117 160.965 88.7117L161.1 88.9367C161.07 89.3567 161.04 89.8217 161.01 90.3317C160.98 90.8117 160.965 91.2917 160.965 91.7717C160.965 93.8417 161.28 95.5817 161.91 96.9917C162.54 98.4017 163.365 99.4667 164.385 100.187C165.405 100.877 166.44 101.222 167.49 101.222C168.3 101.222 169.08 101.102 169.83 100.862C170.61 100.592 171.345 100.157 172.035 99.5567C172.725 98.9267 173.34 98.0717 173.88 96.9917L174.78 97.3517C174.42 98.3717 173.865 99.3767 173.115 100.367C172.365 101.357 171.405 102.167 170.235 102.797C169.065 103.397 167.7 103.697 166.14 103.697C164.04 103.697 162.21 103.232 160.65 102.302C159.09 101.342 157.89 99.9767 157.05 98.2067C156.21 96.4367 155.79 94.3367 155.79 91.9067C155.79 89.2367 156.225 86.9567 157.095 85.0667C157.965 83.1767 159.18 81.7367 160.74 80.7467C162.33 79.7267 164.16 79.2167 166.23 79.2167Z" fill="#59220E"/>
</svg>
