<svg width="176" height="114" viewBox="0 0 176 114" fill="none" xmlns="http://www.w3.org/2000/svg">
<path d="M147.584 52.7367C146.803 50.8519 145.634 49.1524 144.154 47.7482C143.055 49.3869 141.745 50.8732 140.256 52.1686C129.324 61.7838 117.7 70.5832 105.479 78.4957C117.851 76.9614 129.944 73.6885 141.401 68.7739C144.5 67.5992 147.013 65.2542 148.398 62.2441C148.906 60.6855 149.095 59.0409 148.955 57.4078C148.815 55.7746 148.349 54.1862 147.584 52.7367Z" fill="#A64521"/>
<path d="M88.9999 0.93335C75.9424 0.93335 73.9938 10.3358 73.9938 15.9395C73.9938 52.8117 83.4883 88.8264 88.9999 88.8264C94.5114 88.8264 104.006 52.8117 104.006 15.9395C104.006 10.3358 102.057 0.93335 88.9999 0.93335Z" fill="#A64521"/>
<path d="M30.4181 52.7324C29.6522 54.1824 29.1852 55.7715 29.0449 57.4054C28.9046 59.0393 29.0938 60.6847 29.6013 62.2441C30.9845 65.2503 33.4925 67.5935 36.5856 68.7696C48.0468 73.6862 60.1446 76.9606 72.521 78.4957C60.2973 70.5835 48.6713 61.7841 37.7368 52.1686C36.2488 50.8736 34.9391 49.3872 33.8416 47.7482C32.3646 49.152 31.1984 50.8499 30.4181 52.7324Z" fill="#A64521"/>
<path d="M46.3032 25.4769C43.5691 26.3403 41.1497 27.9895 39.3468 30.2189C38.0844 31.4767 37.0869 32.9749 36.4135 34.6248C35.74 36.2748 35.4042 38.043 35.4259 39.8249C35.8808 43.4217 37.728 46.6966 40.5708 48.9465C50.2072 57.441 60.4012 65.281 71.0847 72.4139C62.148 59.6875 54.498 46.1046 48.2475 31.8652C47.2952 29.8405 46.6403 27.6889 46.3032 25.4769Z" fill="#A64521"/>
<path d="M125.857 30.0688C127.653 26.6395 128.033 22.6428 126.916 18.9364C126.165 17.1882 125.071 15.6081 123.699 14.2896C122.327 12.9711 120.705 11.9409 118.929 11.2597C117.225 10.3209 115.344 9.75064 113.406 9.58593C111.468 9.42122 109.518 9.66573 107.68 10.3036C108.095 12.1534 108.3 14.0438 108.294 15.9395C108.233 35.0279 105.922 54.0426 101.408 72.5897C109.44 62.2912 117.357 48.5049 125.857 30.0688Z" fill="#A64521"/>
<path d="M131.697 25.4769C131.359 27.6903 130.703 29.8434 129.75 31.8695C123.5 46.1072 115.851 59.6887 106.915 72.4139C117.598 65.2824 127.792 57.4446 137.429 48.9529C140.272 46.7008 142.12 43.4236 142.574 39.8249C142.595 38.042 142.259 36.2728 141.585 34.6221C140.911 32.9714 139.912 31.4726 138.649 30.2146C136.847 27.9864 134.429 26.3386 131.697 25.4769Z" fill="#A64521"/>
<path d="M59.069 11.2619C57.2927 11.9426 55.6709 12.9725 54.2993 14.2906C52.9278 15.6088 51.8343 17.1885 51.0836 18.9364C49.9652 22.6411 50.3447 26.6366 52.1405 30.0645C60.6426 48.5006 68.5594 62.2913 76.5919 72.5898C72.0782 54.0426 69.767 35.0279 69.7063 15.9395C69.6995 14.0439 69.9052 12.1534 70.3194 10.3036C68.4821 9.66347 66.5306 9.41795 64.592 9.58306C62.6535 9.74818 60.7716 10.3202 59.069 11.2619Z" fill="#A64521"/>
<path d="M19.655 113V112.1C20.675 112.04 21.44 111.92 21.95 111.74C22.46 111.56 22.79 111.2 22.94 110.66C23.12 110.12 23.21 109.31 23.21 108.23V85.91C23.21 84.8 23.12 83.99 22.94 83.48C22.79 82.94 22.445 82.58 21.905 82.4C21.395 82.19 20.645 82.07 19.655 82.04V81.14C20.405 81.17 21.335 81.2 22.445 81.23C23.585 81.26 24.71 81.275 25.82 81.275C27.08 81.275 28.25 81.26 29.33 81.23C30.41 81.2 31.28 81.17 31.94 81.14V82.04C30.95 82.07 30.2 82.19 29.69 82.4C29.18 82.58 28.835 82.94 28.655 83.48C28.475 83.99 28.385 84.8 28.385 85.91V108.23C28.385 109.31 28.475 110.12 28.655 110.66C28.835 111.2 29.18 111.56 29.69 111.74C30.2 111.92 30.95 112.04 31.94 112.1V113C31.28 112.94 30.41 112.91 29.33 112.91C28.25 112.88 27.08 112.865 25.82 112.865C24.71 112.865 23.585 112.88 22.445 112.91C21.335 112.91 20.405 112.94 19.655 113ZM0.755005 113V112.1C1.77501 112.04 2.54001 111.92 3.05 111.74C3.56001 111.56 3.89001 111.2 4.04 110.66C4.22001 110.12 4.31001 109.31 4.31001 108.23V85.91C4.31001 84.8 4.22001 83.99 4.04 83.48C3.89001 82.94 3.54501 82.58 3.005 82.4C2.495 82.19 1.74501 82.07 0.755005 82.04V81.14C1.445 81.17 2.33001 81.2 3.41001 81.23C4.52001 81.26 5.70501 81.275 6.965 81.275C8.10501 81.275 9.21501 81.26 10.295 81.23C11.405 81.2 12.32 81.17 13.04 81.14V82.04C12.05 82.07 11.3 82.19 10.79 82.4C10.28 82.58 9.935 82.94 9.755 83.48C9.575 83.99 9.48501 84.8 9.48501 85.91V108.23C9.48501 109.31 9.575 110.12 9.755 110.66C9.935 111.2 10.28 111.56 10.79 111.74C11.3 111.92 12.05 112.04 13.04 112.1V113C12.32 112.94 11.405 112.91 10.295 112.91C9.21501 112.88 8.10501 112.865 6.965 112.865C5.70501 112.865 4.52001 112.88 3.41001 112.91C2.33001 112.91 1.445 112.94 0.755005 113ZM7.46001 97.43V96.53H25.235V97.43H7.46001Z" fill="#F2E3D5"/>
<path d="M45.3908 89.15C47.4008 89.15 49.1858 89.57 50.7458 90.41C52.3058 91.25 53.5508 92.57 54.4808 94.37C55.4108 96.17 55.8758 98.525 55.8758 101.435C55.8758 104.345 55.4108 106.7 54.4808 108.5C53.5508 110.27 52.3058 111.575 50.7458 112.415C49.1858 113.225 47.4008 113.63 45.3908 113.63C43.4108 113.63 41.6258 113.225 40.0358 112.415C38.4458 111.575 37.1858 110.27 36.2558 108.5C35.3558 106.7 34.9058 104.345 34.9058 101.435C34.9058 98.525 35.3558 96.17 36.2558 94.37C37.1858 92.57 38.4458 91.25 40.0358 90.41C41.6258 89.57 43.4108 89.15 45.3908 89.15ZM45.3908 90.05C43.8308 90.05 42.5558 90.95 41.5658 92.75C40.5758 94.52 40.0808 97.415 40.0808 101.435C40.0808 105.455 40.5758 108.35 41.5658 110.12C42.5558 111.86 43.8308 112.73 45.3908 112.73C46.9208 112.73 48.1808 111.86 49.1708 110.12C50.1908 108.35 50.7008 105.455 50.7008 101.435C50.7008 97.415 50.1908 94.52 49.1708 92.75C48.1808 90.95 46.9208 90.05 45.3908 90.05Z" fill="#F2E3D5"/>
<path d="M66.4483 77.72V108.815C66.4483 110.075 66.6883 110.93 67.1683 111.38C67.6783 111.83 68.5183 112.055 69.6883 112.055V113C69.1783 112.97 68.3833 112.94 67.3033 112.91C66.2233 112.85 65.1433 112.82 64.0633 112.82C62.9833 112.82 61.8883 112.85 60.7783 112.91C59.6983 112.94 58.8883 112.97 58.3483 113V112.055C59.5183 112.055 60.3433 111.83 60.8233 111.38C61.3333 110.93 61.5883 110.075 61.5883 108.815V83.12C61.5883 81.77 61.3633 80.78 60.9133 80.15C60.4633 79.49 59.6083 79.16 58.3483 79.16V78.215C59.3083 78.305 60.2383 78.35 61.1383 78.35C62.1283 78.35 63.0733 78.305 63.9733 78.215C64.8733 78.095 65.6983 77.93 66.4483 77.72Z" fill="#F2E3D5"/>
<path d="M77.2459 78.44C78.1759 78.44 78.9559 78.74 79.5859 79.34C80.2159 79.91 80.5309 80.63 80.5309 81.5C80.5309 82.37 80.2159 83.105 79.5859 83.705C78.9559 84.275 78.1759 84.56 77.2459 84.56C76.3159 84.56 75.5359 84.275 74.9059 83.705C74.2759 83.105 73.9609 82.37 73.9609 81.5C73.9609 80.63 74.2759 79.91 74.9059 79.34C75.5359 78.74 76.3159 78.44 77.2459 78.44ZM79.9459 89.285V108.815C79.9459 110.075 80.1859 110.93 80.6659 111.38C81.1759 111.83 82.0159 112.055 83.1859 112.055V113C82.6759 112.97 81.8809 112.94 80.8009 112.91C79.7509 112.85 78.6709 112.82 77.5609 112.82C76.5109 112.82 75.4309 112.85 74.3209 112.91C73.2109 112.94 72.3859 112.97 71.8459 113V112.055C73.0159 112.055 73.8409 111.83 74.3209 111.38C74.8309 110.93 75.0859 110.075 75.0859 108.815V94.685C75.0859 93.335 74.8609 92.345 74.4109 91.715C73.9609 91.055 73.1059 90.725 71.8459 90.725V89.78C72.8059 89.87 73.7359 89.915 74.6359 89.915C75.6559 89.915 76.6009 89.87 77.4709 89.78C78.3709 89.66 79.1959 89.495 79.9459 89.285Z" fill="#F2E3D5"/>
<path d="M106.397 77.72V108.095C106.397 109.445 106.622 110.45 107.072 111.11C107.552 111.74 108.407 112.055 109.637 112.055V113C108.707 112.91 107.777 112.865 106.847 112.865C105.827 112.865 104.867 112.91 103.967 113C103.097 113.09 102.287 113.255 101.537 113.495V83.12C101.537 81.77 101.297 80.78 100.817 80.15C100.367 79.49 99.5271 79.16 98.2971 79.16V78.215C99.2571 78.305 100.187 78.35 101.087 78.35C102.077 78.35 103.022 78.305 103.922 78.215C104.822 78.095 105.647 77.93 106.397 77.72ZM96.2721 89.15C97.5921 89.15 98.7921 89.435 99.8721 90.005C100.982 90.575 101.762 91.535 102.212 92.885L101.672 93.38C101.252 92.3 100.637 91.52 99.8271 91.04C99.0171 90.53 98.1021 90.275 97.0821 90.275C95.3721 90.275 93.9771 91.19 92.8971 93.02C91.8171 94.82 91.2921 97.61 91.3221 101.39C91.3221 103.88 91.5321 105.92 91.9521 107.51C92.3721 109.07 92.9871 110.225 93.7971 110.975C94.6371 111.725 95.6421 112.1 96.8121 112.1C97.9821 112.1 99.0321 111.605 99.9621 110.615C100.922 109.625 101.492 108.2 101.672 106.34L102.077 107.285C101.777 109.325 101.057 110.9 99.9171 112.01C98.7771 113.09 97.2471 113.63 95.3271 113.63C93.4971 113.63 91.8771 113.195 90.4671 112.325C89.0871 111.425 88.0221 110.075 87.2721 108.275C86.5221 106.445 86.1471 104.15 86.1471 101.39C86.1471 98.66 86.5971 96.395 87.4971 94.595C88.4271 92.765 89.6571 91.4 91.1871 90.5C92.7171 89.6 94.4121 89.15 96.2721 89.15Z" fill="#F2E3D5"/>
<path d="M118.093 113.315C116.833 113.315 115.753 113.075 114.853 112.595C113.953 112.115 113.278 111.455 112.828 110.615C112.378 109.775 112.153 108.815 112.153 107.735C112.153 106.415 112.453 105.35 113.053 104.54C113.653 103.7 114.418 103.025 115.348 102.515C116.308 102.005 117.313 101.585 118.363 101.255C119.443 100.895 120.448 100.565 121.378 100.265C122.338 99.935 123.118 99.56 123.718 99.14C124.348 98.72 124.663 98.165 124.663 97.475V94.415C124.663 93.335 124.483 92.48 124.123 91.85C123.793 91.19 123.328 90.725 122.728 90.455C122.158 90.185 121.468 90.05 120.658 90.05C119.968 90.05 119.233 90.155 118.453 90.365C117.673 90.545 117.058 90.92 116.608 91.49C117.268 91.67 117.808 92.03 118.228 92.57C118.678 93.08 118.903 93.725 118.903 94.505C118.903 95.345 118.618 96.005 118.048 96.485C117.508 96.965 116.818 97.205 115.978 97.205C115.048 97.205 114.358 96.92 113.908 96.35C113.458 95.75 113.233 95.06 113.233 94.28C113.233 93.47 113.428 92.81 113.818 92.3C114.238 91.79 114.778 91.31 115.438 90.86C116.158 90.38 117.073 89.975 118.183 89.645C119.323 89.315 120.583 89.15 121.963 89.15C123.253 89.15 124.363 89.3 125.293 89.6C126.253 89.87 127.048 90.32 127.678 90.95C128.428 91.64 128.923 92.51 129.163 93.56C129.403 94.58 129.523 95.825 129.523 97.295V109.715C129.523 110.465 129.613 111.005 129.793 111.335C130.003 111.635 130.333 111.785 130.783 111.785C131.083 111.785 131.368 111.71 131.638 111.56C131.938 111.41 132.283 111.185 132.673 110.885L133.123 111.65C132.493 112.16 131.848 112.565 131.188 112.865C130.558 113.165 129.748 113.315 128.758 113.315C127.798 113.315 127.018 113.165 126.418 112.865C125.818 112.565 125.368 112.13 125.068 111.56C124.798 110.99 124.663 110.285 124.663 109.445C123.883 110.705 122.953 111.665 121.873 112.325C120.793 112.985 119.533 113.315 118.093 113.315ZM120.253 111.155C121.093 111.155 121.873 110.915 122.593 110.435C123.343 109.955 124.033 109.235 124.663 108.275V99.32C124.333 99.8 123.853 100.22 123.223 100.58C122.593 100.91 121.918 101.255 121.198 101.615C120.478 101.975 119.788 102.395 119.128 102.875C118.498 103.325 117.973 103.91 117.553 104.63C117.133 105.35 116.923 106.265 116.923 107.375C116.923 108.545 117.223 109.475 117.823 110.165C118.423 110.825 119.233 111.155 120.253 111.155Z" fill="#F2E3D5"/>
<path d="M153.098 89.555L140.678 112.325H144.728C145.928 112.325 146.993 112.085 147.923 111.605C148.853 111.125 149.618 110.33 150.218 109.22C150.818 108.11 151.178 106.64 151.298 104.81H152.333C152.333 106.82 152.348 108.5 152.378 109.85C152.408 111.2 152.453 112.31 152.513 113.18C151.163 113.12 149.768 113.075 148.328 113.045C146.888 113.015 145.463 113 144.053 113C142.523 113 140.963 113.015 139.373 113.045C137.813 113.105 136.313 113.165 134.873 113.225L147.293 90.455H143.153C141.863 90.455 140.753 90.71 139.823 91.22C138.893 91.7 138.158 92.495 137.618 93.605C137.108 94.685 136.778 96.14 136.628 97.97H135.638C135.638 95.93 135.623 94.25 135.593 92.93C135.563 91.61 135.518 90.5 135.458 89.6C136.778 89.66 138.158 89.705 139.598 89.735C141.038 89.765 142.478 89.78 143.918 89.78C145.418 89.78 146.948 89.765 148.508 89.735C150.098 89.675 151.628 89.615 153.098 89.555Z" fill="#F2E3D5"/>
<path d="M166.985 89.15C169.625 89.15 171.695 89.945 173.195 91.535C174.695 93.125 175.445 95.645 175.445 99.095H159.92L159.83 98.24H170.675C170.705 96.77 170.585 95.42 170.315 94.19C170.045 92.93 169.625 91.925 169.055 91.175C168.485 90.425 167.735 90.05 166.805 90.05C165.515 90.05 164.39 90.74 163.43 92.12C162.5 93.47 161.93 95.645 161.72 98.645L161.855 98.87C161.825 99.29 161.795 99.755 161.765 100.265C161.735 100.745 161.72 101.225 161.72 101.705C161.72 103.775 162.035 105.515 162.665 106.925C163.295 108.335 164.12 109.4 165.14 110.12C166.16 110.81 167.195 111.155 168.245 111.155C169.055 111.155 169.835 111.035 170.585 110.795C171.365 110.525 172.1 110.09 172.79 109.49C173.48 108.86 174.095 108.005 174.635 106.925L175.535 107.285C175.175 108.305 174.62 109.31 173.87 110.3C173.12 111.29 172.16 112.1 170.99 112.73C169.82 113.33 168.455 113.63 166.895 113.63C164.795 113.63 162.965 113.165 161.405 112.235C159.845 111.275 158.645 109.91 157.805 108.14C156.965 106.37 156.545 104.27 156.545 101.84C156.545 99.17 156.98 96.89 157.85 95C158.72 93.11 159.935 91.67 161.495 90.68C163.085 89.66 164.915 89.15 166.985 89.15Z" fill="#F2E3D5"/>
</svg>
